<svg width="39" height="39" viewBox="0 0 39 39" fill="none" xmlns="http://www.w3.org/2000/svg">
<g id="photo_library_24px">
<path id="icon/image/photo_library_24px" fill-rule="evenodd" clip-rule="evenodd" d="M13.0001 3.25H32.5001C34.2876 3.25 35.7501 4.7125 35.7501 6.5V26C35.7501 27.7875 34.2876 29.25 32.5001 29.25H13.0001C11.2126 29.25 9.75006 27.7875 9.75006 26V6.5C9.75006 4.7125 11.2126 3.25 13.0001 3.25ZM32.5 26V6.50003H13V26H32.5ZM18.6876 18.9638L21.4338 22.6363L25.4638 17.5988L30.8751 24.375H14.6251L18.6876 18.9638ZM3.25 32.5V9.75002H6.5V32.5H29.25V35.75H6.5C4.7125 35.75 3.25 34.2875 3.25 32.5Z" fill="white"/>
</g>
</svg>
